<svg width="40" height="40" viewBox="0 0 40 40" fill="none" xmlns="http://www.w3.org/2000/svg">
<path d="M25 31.25H33.75V33.75H25V31.25ZM27.5 36.25H31.25V38.75H27.5V36.25ZM33.75 28.75H31.25C31.25 27.375 31.75 26.25 32.75 25.25L33.375 24.625C34.375 23.625 35 22.125 35 20.625C35 17.5 32.5 15 29.375 15C26.25 15 23.75 17.5 23.75 20.625C23.75 22.125 24.375 23.5 25.375 24.625L26 25.25C27 26.25 27.5 27.375 27.5 28.75H25C25 28.125 24.75 27.5 24.25 27L23.625 26.375C22.125 24.875 21.25 22.75 21.25 20.625C21.25 16.125 24.875 12.5 29.375 12.5C33.875 12.5 37.5 16.125 37.5 20.625C37.5 22.75 36.625 24.875 35.125 26.375L34.5 27C34 27.5 33.75 28.125 33.75 28.75ZM7.5 27.5H17.5V30H7.5V27.5Z" fill="white"/>
<path d="M15 25C15.6904 25 16.25 24.4404 16.25 23.75C16.25 23.0596 15.6904 22.5 15 22.5C14.3096 22.5 13.75 23.0596 13.75 23.75C13.75 24.4404 14.3096 25 15 25Z" fill="white"/>
<path d="M7.5 22.5H11.25V25H7.5V22.5ZM7.5 17.5H16.25V20H7.5V17.5ZM12.5 12.5H21.25V15H12.5V12.5Z" fill="white"/>
<path d="M8.75 15C9.44036 15 10 14.4404 10 13.75C10 13.0596 9.44036 12.5 8.75 12.5C8.05964 12.5 7.5 13.0596 7.5 13.75C7.5 14.4404 8.05964 15 8.75 15Z" fill="white"/>
<path d="M20 7.5H25V10H20V7.5Z" fill="white"/>
<path d="M16.25 10C16.9404 10 17.5 9.44036 17.5 8.75C17.5 8.05964 16.9404 7.5 16.25 7.5C15.5596 7.5 15 8.05964 15 8.75C15 9.44036 15.5596 10 16.25 10Z" fill="white"/>
<path d="M7.5 7.5H12.5V10H7.5V7.5Z" fill="white"/>
<path d="M22.5 35H5V5H27.5V10H30V5C30 3.625 28.875 2.5 27.5 2.5H5C3.625 2.5 2.5 3.625 2.5 5V35C2.5 36.375 3.625 37.5 5 37.5H22.5V35Z" fill="white"/>
</svg>
