<svg width="40" height="40" viewBox="0 0 40 40" fill="none" xmlns="http://www.w3.org/2000/svg">
<g clip-path="url(#clip0_106_10)">
<path d="M31.1113 4.44434H13.3336C12.7442 4.44434 12.1789 4.67846 11.7622 5.09521C11.3455 5.51196 11.1113 6.07719 11.1113 6.66656V14.4443H20.5558L16.8002 10.7888C16.6182 10.5762 16.5231 10.3028 16.5339 10.0232C16.5447 9.74353 16.6606 9.47826 16.8585 9.28038C17.0564 9.08249 17.3216 8.96657 17.6013 8.95577C17.8809 8.94497 18.1543 9.04008 18.3669 9.22211L24.8002 15.6554L18.3669 22.0888C18.1543 22.2708 17.8809 22.3659 17.6013 22.3551C17.3216 22.3443 17.0564 22.2284 16.8585 22.0305C16.6606 21.8326 16.5447 21.5674 16.5339 21.2877C16.5231 21.0081 16.6182 20.7347 16.8002 20.5221L20.5558 16.6666H11.1113V33.3332C11.1113 33.9226 11.3455 34.4878 11.7622 34.9046C12.1789 35.3213 12.7442 35.5554 13.3336 35.5554H31.1113C31.7007 35.5554 32.2659 35.3213 32.6827 34.9046C33.0994 34.4878 33.3336 33.9226 33.3336 33.3332V6.66656C33.3336 6.07719 33.0994 5.51196 32.6827 5.09521C32.2659 4.67846 31.7007 4.44434 31.1113 4.44434Z" fill="white"/>
<path d="M11.1108 14.4443H4.44412C4.14943 14.4443 3.86682 14.5614 3.65844 14.7698C3.45007 14.9781 3.33301 15.2608 3.33301 15.5554C3.33301 15.8501 3.45007 16.1327 3.65844 16.3411C3.86682 16.5495 4.14943 16.6666 4.44412 16.6666H11.1108V14.4443Z" fill="white"/>
</g>
<defs>
<clipPath id="clip0_106_10">
<rect width="40" height="40" fill="white"/>
</clipPath>
</defs>
</svg>
