<svg width="20" height="20" viewBox="0 0 20 20" fill="none" xmlns="http://www.w3.org/2000/svg">
<g clip-path="url(#clip0_32_27)">
<path d="M17.917 3.33337H16.1115V4.44449H17.7781V16.6667H2.22258V4.44449H3.88925V3.33337H2.08369C1.95382 3.33554 1.82566 3.36328 1.70651 3.41499C1.58736 3.4667 1.47957 3.54138 1.38928 3.63476C1.299 3.72814 1.228 3.83838 1.18033 3.95921C1.13266 4.08003 1.10926 4.20906 1.11147 4.33893V16.7723C1.10926 16.9021 1.13266 17.0312 1.18033 17.152C1.228 17.2728 1.299 17.3831 1.38928 17.4764C1.47957 17.5698 1.58736 17.6445 1.70651 17.6962C1.82566 17.7479 1.95382 17.7756 2.08369 17.7778H17.917C18.0469 17.7756 18.1751 17.7479 18.2942 17.6962C18.4134 17.6445 18.5212 17.5698 18.6114 17.4764C18.7017 17.3831 18.7727 17.2728 18.8204 17.152C18.8681 17.0312 18.8915 16.9021 18.8892 16.7723V4.33893C18.8915 4.20906 18.8681 4.08003 18.8204 3.95921C18.7727 3.83838 18.7017 3.72814 18.6114 3.63476C18.5212 3.54138 18.4134 3.4667 18.2942 3.41499C18.1751 3.36328 18.0469 3.33554 17.917 3.33337Z" fill="white"/>
<path d="M4.44434 7.77783H5.55545V8.88894H4.44434V7.77783Z" fill="white"/>
<path d="M7.77734 7.77783H8.88845V8.88894H7.77734V7.77783Z" fill="white"/>
<path d="M11.1113 7.77783H12.2224V8.88894H11.1113V7.77783Z" fill="white"/>
<path d="M14.4443 7.77783H15.5554V8.88894H14.4443V7.77783Z" fill="white"/>
<path d="M4.44434 10.5555H5.55545V11.6667H4.44434V10.5555Z" fill="white"/>
<path d="M7.77734 10.5555H8.88845V11.6667H7.77734V10.5555Z" fill="white"/>
<path d="M11.1113 10.5555H12.2224V11.6667H11.1113V10.5555Z" fill="white"/>
<path d="M14.4443 10.5555H15.5554V11.6667H14.4443V10.5555Z" fill="white"/>
<path d="M4.44434 13.3334H5.55545V14.4445H4.44434V13.3334Z" fill="white"/>
<path d="M7.77734 13.3334H8.88845V14.4445H7.77734V13.3334Z" fill="white"/>
<path d="M11.1113 13.3334H12.2224V14.4445H11.1113V13.3334Z" fill="white"/>
<path d="M14.4443 13.3334H15.5554V14.4445H14.4443V13.3334Z" fill="white"/>
<path d="M5.55556 5.55553C5.7029 5.55553 5.84421 5.497 5.94839 5.39281C6.05258 5.28862 6.11111 5.14732 6.11111 4.99997V1.66664C6.11111 1.5193 6.05258 1.37799 5.94839 1.2738C5.84421 1.16962 5.7029 1.11108 5.55556 1.11108C5.40821 1.11108 5.26691 1.16962 5.16272 1.2738C5.05853 1.37799 5 1.5193 5 1.66664V4.99997C5 5.14732 5.05853 5.28862 5.16272 5.39281C5.26691 5.497 5.40821 5.55553 5.55556 5.55553Z" fill="white"/>
<path d="M14.4442 5.55553C14.5916 5.55553 14.7329 5.497 14.8371 5.39281C14.9413 5.28862 14.9998 5.14732 14.9998 4.99997V1.66664C14.9998 1.5193 14.9413 1.37799 14.8371 1.2738C14.7329 1.16962 14.5916 1.11108 14.4442 1.11108C14.2969 1.11108 14.1556 1.16962 14.0514 1.2738C13.9472 1.37799 13.8887 1.5193 13.8887 1.66664V4.99997C13.8887 5.14732 13.9472 5.28862 14.0514 5.39281C14.1556 5.497 14.2969 5.55553 14.4442 5.55553Z" fill="white"/>
<path d="M7.22266 3.33337H12.7782V4.44449H7.22266V3.33337Z" fill="white"/>
</g>
<defs>
<clipPath id="clip0_32_27">
<rect width="20" height="20" fill="white"/>
</clipPath>
</defs>
</svg>
