<svg width="40" height="40" viewBox="0 0 40 40" fill="none" xmlns="http://www.w3.org/2000/svg">
<path fill-rule="evenodd" clip-rule="evenodd" d="M18.8337 5.50011C19.1452 5.19473 19.5641 5.02368 20.0003 5.02368C20.4366 5.02368 20.8554 5.19473 21.167 5.50011L31.167 15.5001L34.5003 18.8334C34.741 19.1544 34.8579 19.5514 34.8295 19.9516C34.801 20.3518 34.6292 20.7283 34.3455 21.012C34.0618 21.2956 33.6853 21.4675 33.2851 21.4959C32.885 21.5244 32.4879 21.4075 32.167 21.1668L31.667 20.6668V31.6668C31.667 32.5508 31.3158 33.3987 30.6907 34.0238C30.0656 34.6489 29.2177 35.0001 28.3337 35.0001H23.3337C22.8916 35.0001 22.4677 34.8245 22.1551 34.512C21.8426 34.1994 21.667 33.7755 21.667 33.3334V28.3334H18.3337V33.3334C18.3337 34.3334 17.667 35.0001 16.667 35.0001H11.667C10.7829 35.0001 9.93509 34.6489 9.30997 34.0238C8.68485 33.3987 8.33366 32.5508 8.33366 31.6668V20.6668L7.83366 21.1668C7.51271 21.4075 7.1157 21.5244 6.71551 21.4959C6.31533 21.4675 5.93884 21.2956 5.65515 21.012C5.37146 20.7283 5.19963 20.3518 5.17119 19.9516C5.14275 19.5514 5.25961 19.1544 5.50033 18.8334L8.83366 15.5001L18.8337 5.50011Z" fill="white"/>
</svg>
