<svg width="40" height="40" viewBox="0 0 40 40" fill="none" xmlns="http://www.w3.org/2000/svg">
<path d="M8.33301 11.6667H31.6663M16.6663 16.6667V30M23.333 16.6667V30M16.6663 5H23.333C23.775 5 24.199 5.17559 24.5115 5.48816C24.8241 5.80072 24.9997 6.22464 24.9997 6.66667V11.6667H14.9997V6.66667C14.9997 6.22464 15.1753 5.80072 15.4878 5.48816C15.8004 5.17559 16.2243 5 16.6663 5ZM9.99967 11.6667H29.9997V33.3333C29.9997 33.7754 29.8241 34.1993 29.5115 34.5118C29.199 34.8244 28.775 35 28.333 35H11.6663C11.2243 35 10.8004 34.8244 10.4878 34.5118C10.1753 34.1993 9.99967 33.7754 9.99967 33.3333V11.6667Z" stroke="#FFB633" stroke-width="3.33333" stroke-linecap="round" stroke-linejoin="round"/>
</svg>
