<svg width="40" height="40" viewBox="0 0 40 40" fill="none" xmlns="http://www.w3.org/2000/svg">
<path d="M26.6663 16.6667C26.6663 18.4348 25.964 20.1305 24.7137 21.3807C23.4635 22.631 21.7678 23.3333 19.9997 23.3333C18.2316 23.3333 16.5359 22.631 15.2856 21.3807C14.0354 20.1305 13.333 18.4348 13.333 16.6667C13.333 14.8986 14.0354 13.2029 15.2856 11.9526C16.5359 10.7024 18.2316 10 19.9997 10C21.7678 10 23.4635 10.7024 24.7137 11.9526C25.964 13.2029 26.6663 14.8986 26.6663 16.6667Z" fill="white"/>
<path fill-rule="evenodd" clip-rule="evenodd" d="M19.3197 36.6533C10.4305 36.2966 3.33301 28.9766 3.33301 19.9999C3.33301 10.7949 10.7947 3.33325 19.9997 3.33325C29.2047 3.33325 36.6663 10.7949 36.6663 19.9999C36.6663 29.2049 29.2047 36.6666 19.9997 36.6666C19.9236 36.6671 19.8475 36.6671 19.7713 36.6666C19.6205 36.6666 19.4697 36.6616 19.3197 36.6533ZM9.30467 30.5166C9.18006 30.1587 9.13765 29.7774 9.18058 29.4009C9.22351 29.0244 9.35068 28.6624 9.55266 28.3418C9.75463 28.0212 10.0262 27.7502 10.3473 27.5489C10.6683 27.3476 11.0306 27.2212 11.4072 27.1791C17.9038 26.4599 22.1355 26.5249 28.6005 27.1941C28.9776 27.2334 29.3408 27.3582 29.6623 27.559C29.9839 27.7598 30.2554 28.0314 30.4561 28.353C30.6569 28.6746 30.7816 29.0378 30.8208 29.4149C30.8599 29.792 30.8125 30.1731 30.6822 30.5291C33.453 27.7257 35.0046 23.9415 34.9997 19.9999C34.9997 11.7158 28.2838 4.99992 19.9997 4.99992C11.7155 4.99992 4.99967 11.7158 4.99967 19.9999C4.99967 24.0966 6.64217 27.8099 9.30467 30.5166Z" fill="white"/>
</svg>
