<svg width="40" height="40" viewBox="0 0 40 40" fill="none" xmlns="http://www.w3.org/2000/svg">
<path fill-rule="evenodd" clip-rule="evenodd" d="M12.9737 2.26012C12.3809 2.15554 11.7733 2.16878 11.1856 2.29905C10.5979 2.42933 10.0416 2.6741 9.5485 3.01939C9.05541 3.36468 8.63516 3.80372 8.31177 4.31144C7.98837 4.81916 7.76816 5.38561 7.6637 5.97845L3.6137 28.9568C3.40247 30.1538 3.67537 31.3857 4.37237 32.3815C5.06937 33.3773 6.13339 34.0554 7.33037 34.2668L27.027 37.7401C28.2238 37.9509 29.4552 37.6777 30.4507 36.9808C31.4461 36.2838 32.124 35.2201 32.3354 34.0234L36.3887 11.0434C36.4933 10.4506 36.48 9.84303 36.3498 9.25533C36.2195 8.66762 35.9747 8.11134 35.6294 7.61825C35.2841 7.12516 34.8451 6.70491 34.3374 6.38152C33.8297 6.05812 33.2632 5.8379 32.6704 5.73345L12.9737 2.26012ZM15.1004 9.40512C14.9373 9.37308 14.7694 9.3739 14.6066 9.40753C14.4438 9.44115 14.2894 9.50691 14.1523 9.60094C14.0153 9.69498 13.8983 9.81541 13.8084 9.95518C13.7184 10.095 13.6572 10.2513 13.6284 10.415C13.5996 10.5787 13.6037 10.7465 13.6405 10.9086C13.6774 11.0707 13.7461 11.2238 13.8428 11.359C13.9396 11.4942 14.0623 11.6087 14.2038 11.6959C14.3453 11.7831 14.5028 11.8412 14.667 11.8668L27.797 14.1834C28.1237 14.2409 28.4598 14.1663 28.7314 13.9759C29.003 13.7856 29.1879 13.4951 29.2454 13.1684C29.3028 12.8418 29.2282 12.5057 29.0378 12.2341C28.8475 11.9625 28.557 11.7776 28.2304 11.7201L15.1004 9.40512ZM12.4954 16.9851C12.5531 16.6587 12.7381 16.3686 13.0097 16.1785C13.2813 15.9885 13.6173 15.9141 13.9437 15.9718L27.0737 18.2868C27.2379 18.3124 27.3954 18.3705 27.5369 18.4577C27.6785 18.5448 27.8012 18.6594 27.8979 18.7946C27.9946 18.9298 28.0634 19.0829 28.1002 19.245C28.137 19.4071 28.1411 19.5749 28.1123 19.7386C28.0835 19.9023 28.0223 20.0586 27.9324 20.1984C27.8424 20.3382 27.7255 20.4586 27.5884 20.5526C27.4513 20.6467 27.2969 20.7124 27.1341 20.746C26.9713 20.7797 26.8035 20.7805 26.6404 20.7484L13.5087 18.4318C13.1826 18.3741 12.8928 18.1893 12.7028 17.9181C12.5128 17.6468 12.4382 17.3113 12.4954 16.9851ZM12.7854 22.5351C12.6223 22.5031 12.4544 22.5039 12.2916 22.5375C12.1288 22.5712 11.9744 22.6369 11.8373 22.7309C11.7003 22.825 11.5833 22.9454 11.4934 23.0852C11.4034 23.225 11.3422 23.3813 11.3134 23.545C11.2846 23.7087 11.2887 23.8765 11.3255 24.0386C11.3624 24.2007 11.4311 24.3538 11.5278 24.489C11.6246 24.6242 11.7473 24.7387 11.8888 24.8259C12.0303 24.9131 12.1878 24.9712 12.352 24.9968L20.5587 26.4451C20.8854 26.5026 21.2215 26.4279 21.4931 26.2376C21.7647 26.0472 21.9496 25.7568 22.007 25.4301C22.0645 25.1035 21.9898 24.7673 21.7995 24.4957C21.6091 24.2241 21.3187 24.0392 20.992 23.9818L12.7854 22.5351Z" fill="white"/>
</svg>
