<svg width="40" height="40" viewBox="0 0 40 40" fill="none" xmlns="http://www.w3.org/2000/svg">
<path d="M26 0C27.0609 0 28.0783 0.421427 28.8284 1.17157C29.5786 1.92172 30 2.93913 30 4H12C10.9391 4 9.92172 4.42143 9.17157 5.17157C8.42143 5.92172 8 6.93913 8 8V32C6.93913 32 5.92172 31.5786 5.17157 30.8284C4.42143 30.0783 4 29.0609 4 28V4C4 2.93913 4.42143 1.92172 5.17157 1.17157C5.92172 0.421427 6.93913 0 8 0L26 0Z" fill="white"/>
<path d="M36 10C36 8.93913 35.5786 7.92172 34.8284 7.17157C34.0783 6.42143 33.0609 6 32 6H14C12.9391 6 11.9217 6.42143 11.1716 7.17157C10.4214 7.92172 10 8.93913 10 10V36C10 37.0609 10.4214 38.0783 11.1716 38.8284C11.9217 39.5786 12.9391 40 14 40H32C33.0609 40 34.0783 39.5786 34.8284 38.8284C35.5786 38.0783 36 37.0609 36 36V10ZM22 20H14V10H22V20ZM32 12H24V10H32V12ZM32 16H24V14H32V16ZM32 20H24V18H32V20ZM32 24H14V22H32V24ZM32 28H14V26H32V28ZM32 32H14V30H32V32Z" fill="white"/>
</svg>
