<svg width="40" height="40" viewBox="0 0 40 40" fill="none" xmlns="http://www.w3.org/2000/svg">
<path d="M18.75 8.75V16.25C18.75 16.913 18.4866 17.5489 18.0178 18.0178C17.5489 18.4866 16.913 18.75 16.25 18.75H8.75C8.08696 18.75 7.45107 18.4866 6.98223 18.0178C6.51339 17.5489 6.25 16.913 6.25 16.25V8.75C6.25 8.08696 6.51339 7.45107 6.98223 6.98223C7.45107 6.51339 8.08696 6.25 8.75 6.25H16.25C16.913 6.25 17.5489 6.51339 18.0178 6.98223C18.4866 7.45107 18.75 8.08696 18.75 8.75ZM31.25 6.25H23.75C23.087 6.25 22.4511 6.51339 21.9822 6.98223C21.5134 7.45107 21.25 8.08696 21.25 8.75V16.25C21.25 16.913 21.5134 17.5489 21.9822 18.0178C22.4511 18.4866 23.087 18.75 23.75 18.75H31.25C31.913 18.75 32.5489 18.4866 33.0178 18.0178C33.4866 17.5489 33.75 16.913 33.75 16.25V8.75C33.75 8.08696 33.4866 7.45107 33.0178 6.98223C32.5489 6.51339 31.913 6.25 31.25 6.25ZM16.25 21.25H8.75C8.08696 21.25 7.45107 21.5134 6.98223 21.9822C6.51339 22.4511 6.25 23.087 6.25 23.75V31.25C6.25 31.913 6.51339 32.5489 6.98223 33.0178C7.45107 33.4866 8.08696 33.75 8.75 33.75H16.25C16.913 33.75 17.5489 33.4866 18.0178 33.0178C18.4866 32.5489 18.75 31.913 18.75 31.25V23.75C18.75 23.087 18.4866 22.4511 18.0178 21.9822C17.5489 21.5134 16.913 21.25 16.25 21.25ZM31.25 21.25H23.75C23.087 21.25 22.4511 21.5134 21.9822 21.9822C21.5134 22.4511 21.25 23.087 21.25 23.75V31.25C21.25 31.913 21.5134 32.5489 21.9822 33.0178C22.4511 33.4866 23.087 33.75 23.75 33.75H31.25C31.913 33.75 32.5489 33.4866 33.0178 33.0178C33.4866 32.5489 33.75 31.913 33.75 31.25V23.75C33.75 23.087 33.4866 22.4511 33.0178 21.9822C32.5489 21.5134 31.913 21.25 31.25 21.25Z" fill="black"/>
</svg>
