<svg width="40" height="40" viewBox="0 0 40 40" fill="none" xmlns="http://www.w3.org/2000/svg">
<path d="M19.9997 36.6666C10.7947 36.6666 3.33301 29.2049 3.33301 19.9999C3.33301 10.7949 10.7947 3.33325 19.9997 3.33325C29.2047 3.33325 36.6663 10.7949 36.6663 19.9999C36.6663 29.2049 29.2047 36.6666 19.9997 36.6666ZM18.333 24.9999V28.3333H21.6663V24.9999H18.333ZM21.6663 22.2583C23.0058 21.8545 24.1557 20.9832 24.9066 19.8028C25.6575 18.6225 25.9595 17.2117 25.7576 15.8274C25.5556 14.4431 24.8632 13.1773 23.8064 12.2607C22.7495 11.344 21.3986 10.8375 19.9997 10.8333C18.6511 10.8331 17.3441 11.3002 16.301 12.1549C15.2579 13.0096 14.543 14.1993 14.278 15.5216L17.548 16.1766C17.6408 15.7123 17.8635 15.2839 18.1903 14.9413C18.517 14.5986 18.9344 14.3558 19.3937 14.2411C19.8531 14.1264 20.3356 14.1444 20.785 14.2932C21.2345 14.442 21.6325 14.7153 21.9327 15.0814C22.2329 15.4476 22.423 15.8914 22.4808 16.3613C22.5386 16.8312 22.4618 17.3079 22.2593 17.7359C22.0568 18.1639 21.7369 18.5255 21.3369 18.7788C20.9369 19.0321 20.4731 19.1666 19.9997 19.1666C19.5576 19.1666 19.1337 19.3422 18.8212 19.6547C18.5086 19.9673 18.333 20.3912 18.333 20.8333V23.3333H21.6663V22.2583Z" fill="white"/>
</svg>
