<svg width="20" height="17" viewBox="0 0 20 17" fill="none" xmlns="http://www.w3.org/2000/svg">
<path d="M15.4492 7.40039C15.7161 7.86914 15.9147 8.35742 16.0449 8.86523C16.1751 9.37305 16.2435 9.89714 16.25 10.4375V11.4434L10 14.5781L3.75 11.4434C3.75 11.0527 3.75326 10.6882 3.75977 10.3496C3.76628 10.0111 3.79557 9.68229 3.84766 9.36328C3.89974 9.04427 3.97786 8.72526 4.08203 8.40625C4.1862 8.08724 4.34245 7.75195 4.55078 7.40039L2.5 6.375V12.1074C2.6888 12.1725 2.85807 12.2637 3.00781 12.3809C3.15755 12.498 3.29102 12.6348 3.4082 12.791C3.52539 12.9473 3.61003 13.1165 3.66211 13.2988C3.71419 13.4811 3.74349 13.6732 3.75 13.875V17H0V13.875C0 13.6797 0.0292969 13.4909 0.0878906 13.3086C0.146484 13.1263 0.23112 12.9538 0.341797 12.791C0.452474 12.6283 0.582682 12.4915 0.732422 12.3809C0.882161 12.2702 1.05469 12.179 1.25 12.1074V5.75L0 5.125L10 0.125L20 5.125L15.4492 7.40039ZM2.5 13.875C2.5 13.7057 2.43815 13.5592 2.31445 13.4355C2.19076 13.3118 2.04427 13.25 1.875 13.25C1.70573 13.25 1.55924 13.3118 1.43555 13.4355C1.31185 13.5592 1.25 13.7057 1.25 13.875V15.75H2.5V13.875ZM2.79297 5.125L10 8.72852L17.207 5.125L10 1.52148L2.79297 5.125ZM15 10.6719C15 10.1706 14.9512 9.70508 14.8535 9.27539C14.7559 8.8457 14.5833 8.40625 14.3359 7.95703L10 10.125L5.66406 7.95703C5.44922 8.33464 5.28646 8.73177 5.17578 9.14844C5.0651 9.5651 5.00651 9.99479 5 10.4375V10.6719L10 13.1719L15 10.6719Z" fill="white"/>
</svg>
