<svg width="20" height="18" viewBox="0 0 20 18" fill="none" xmlns="http://www.w3.org/2000/svg">
<path fill-rule="evenodd" clip-rule="evenodd" d="M1.46341 13.6474C1.85154 13.6474 2.22376 13.8613 2.49821 14.242C2.77265 14.6228 2.92683 15.1391 2.92683 15.6776C2.92683 16.216 2.77265 16.7324 2.49821 17.1131C2.22376 17.4939 1.85154 17.7078 1.46341 17.7078C1.07529 17.7078 0.703068 17.4939 0.428624 17.1131C0.154181 16.7324 0 16.216 0 15.6776C0 15.1391 0.154181 14.6228 0.428624 14.242C0.703068 13.8613 1.07529 13.6474 1.46341 13.6474ZM19.0234 14.3241C19.5629 14.3241 20 14.9251 20 15.6776C20 16.4254 19.5659 17.031 19.0234 17.031H5.36683C5.23856 17.0316 5.11147 16.9969 4.99288 16.9291C4.87428 16.8613 4.76651 16.7617 4.67576 16.6359C4.58502 16.5101 4.51308 16.3607 4.46408 16.1963C4.41508 16.0318 4.38999 15.8555 4.39024 15.6776C4.39024 14.9298 4.82439 14.3241 5.36683 14.3241H19.0234ZM1.46341 6.88009C1.85154 6.88009 2.22376 7.09399 2.49821 7.47472C2.77265 7.85546 2.92683 8.37184 2.92683 8.91028C2.92683 9.44872 2.77265 9.96511 2.49821 10.3458C2.22376 10.7266 1.85154 10.9405 1.46341 10.9405C1.07529 10.9405 0.703068 10.7266 0.428624 10.3458C0.154181 9.96511 0 9.44872 0 8.91028C0 8.37184 0.154181 7.85546 0.428624 7.47472C0.703068 7.09399 1.07529 6.88009 1.46341 6.88009ZM19.0234 7.55682C19.5629 7.55682 20 8.15776 20 8.91028C20 9.65807 19.5659 10.2637 19.0234 10.2637H5.36683C5.23856 10.2643 5.11147 10.2296 4.99288 10.1618C4.87428 10.094 4.76651 9.99437 4.67576 9.8686C4.58502 9.74283 4.51308 9.59343 4.46408 9.42897C4.41508 9.26451 4.38999 9.08824 4.39024 8.91028C4.39024 8.1625 4.82439 7.55682 5.36683 7.55682H19.0234ZM1.46341 0.112793C1.85154 0.112793 2.22376 0.326687 2.49821 0.707422C2.77265 1.08816 2.92683 1.60454 2.92683 2.14298C2.92683 2.68142 2.77265 3.19781 2.49821 3.57854C2.22376 3.95928 1.85154 4.17317 1.46341 4.17317C1.07529 4.17317 0.703068 3.95928 0.428624 3.57854C0.154181 3.19781 0 2.68142 0 2.14298C0 1.60454 0.154181 1.08816 0.428624 0.707422C0.703068 0.326687 1.07529 0.112793 1.46341 0.112793ZM19.0234 0.789523C19.5629 0.789523 20 1.39046 20 2.14298C20 2.89077 19.5659 3.49644 19.0234 3.49644H5.36683C5.23856 3.49698 5.11147 3.46235 4.99288 3.39453C4.87428 3.32672 4.76651 3.22707 4.67576 3.1013C4.58502 2.97553 4.51308 2.82612 4.46408 2.66167C4.41508 2.49721 4.38999 2.32094 4.39024 2.14298C4.39024 1.3952 4.82439 0.789523 5.36683 0.789523H19.0234Z" fill="#FFB633"/>
</svg>
