<svg width="34" height="34" viewBox="0 0 34 34" fill="none" xmlns="http://www.w3.org/2000/svg">
<path d="M28.7503 5.18332C27.2223 3.63986 25.4023 2.4161 23.3964 1.58341C21.3905 0.750711 19.2389 0.325755 17.067 0.333321C7.96699 0.333321 0.550326 7.74999 0.550326 16.85C0.550326 19.7667 1.31699 22.6 2.75033 25.1L0.416992 33.6667L9.16699 31.3667C11.5837 32.6833 14.3003 33.3833 17.067 33.3833C26.167 33.3833 33.5837 25.9667 33.5837 16.8667C33.5837 12.45 31.867 8.29999 28.7503 5.18332ZM17.067 30.5833C14.6003 30.5833 12.1837 29.9167 10.067 28.6667L9.56699 28.3667L4.36699 29.7333L5.75033 24.6667L5.41699 24.15C4.04657 21.9616 3.31889 19.4321 3.31699 16.85C3.31699 9.28332 9.48366 3.11665 17.0503 3.11665C20.717 3.11665 24.167 4.54999 26.7503 7.14999C28.0295 8.42326 29.0432 9.93776 29.7326 11.6057C30.4221 13.2736 30.7737 15.0618 30.767 16.8667C30.8003 24.4333 24.6337 30.5833 17.067 30.5833ZM24.6003 20.3167C24.1837 20.1167 22.1503 19.1167 21.7837 18.9667C21.4003 18.8333 21.1337 18.7667 20.8503 19.1667C20.567 19.5833 19.7837 20.5167 19.5503 20.7833C19.317 21.0667 19.067 21.1 18.6503 20.8833C18.2337 20.6833 16.9003 20.2333 15.3337 18.8333C14.1003 17.7333 13.2837 16.3833 13.0337 15.9667C12.8003 15.55 13.0003 15.3333 13.217 15.1167C13.4003 14.9333 13.6337 14.6333 13.8337 14.4C14.0337 14.1667 14.117 13.9833 14.2503 13.7167C14.3837 13.4333 14.317 13.2 14.217 13C14.117 12.8 13.2837 10.7667 12.9503 9.93332C12.617 9.13332 12.267 9.23332 12.017 9.21665H11.217C10.9337 9.21665 10.5003 9.31665 10.117 9.73332C9.75033 10.15 8.68366 11.15 8.68366 13.1833C8.68366 15.2167 10.167 17.1833 10.367 17.45C10.567 17.7333 13.2837 21.9 17.417 23.6833C18.4003 24.1167 19.167 24.3667 19.767 24.55C20.7503 24.8667 21.6503 24.8167 22.367 24.7167C23.167 24.6 24.817 23.7167 25.1503 22.75C25.5003 21.7833 25.5003 20.9667 25.3837 20.7833C25.267 20.6 25.017 20.5167 24.6003 20.3167Z" fill="white"/>
</svg>
